<svg width="24" height="24" viewBox="0 0 24 24" fill="none" xmlns="http://www.w3.org/2000/svg">
<path fill-rule="evenodd" clip-rule="evenodd" d="M5.52008 0.923065C2.73482 0.923065 0.476929 3.18096 0.476929 5.96622V18.8543C0.476929 21.6395 2.73482 23.8974 5.52008 23.8974H18.4081C21.1934 23.8974 23.4513 21.6395 23.4513 18.8543V5.96622C23.4513 3.18096 21.1934 0.923065 18.4081 0.923065H5.52008ZM2.71833 5.96622C2.71833 4.41885 3.97272 3.16447 5.52008 3.16447H18.4081C19.9555 3.16447 21.2099 4.41885 21.2099 5.96622V18.8543C21.2099 20.4016 19.9555 21.656 18.4081 21.656H5.52008C3.97272 21.656 2.71833 20.4016 2.71833 18.8543V5.96622ZM12.8046 6.24639C12.8046 5.78218 12.4283 5.40587 11.9641 5.40587C11.4999 5.40587 11.1236 5.78218 11.1236 6.24639V11.5697H5.23991C4.7757 11.5697 4.39938 11.946 4.39938 12.4102C4.39938 12.8745 4.7757 13.2508 5.23991 13.2508H11.1236V19.1344C11.1236 19.5987 11.4999 19.975 11.9641 19.975C12.4283 19.975 12.8046 19.5987 12.8046 19.1344V13.2508H18.6883C19.1525 13.2508 19.5288 12.8745 19.5288 12.4102C19.5288 11.946 19.1525 11.5697 18.6883 11.5697H12.8046V6.24639Z" fill="#262626"/>
</svg>
