<svg width="26" height="24" viewBox="0 0 26 24" fill="none" xmlns="http://www.w3.org/2000/svg">
<g clip-path="url(#clip0_413_566)">
<path fill-rule="evenodd" clip-rule="evenodd" d="M4.34418 4.33444C6.26824 2.10804 9.19061 0.352417 13.1043 0.352417C17.0763 0.352417 19.9307 2.37806 21.7562 4.69822C23.5415 6.96739 24.4497 9.65326 24.4497 11.2652C24.4497 13.0078 24.1428 14.5217 23.75 15.6802C23.5538 16.259 23.3322 16.7607 23.1084 17.1653C23.0305 17.3063 22.9455 17.448 22.8538 17.5835L23.8485 21.6123C23.9452 22.0037 23.8319 22.4178 23.5501 22.7031C23.2683 22.9885 22.8593 23.1032 22.4727 23.0053L18.4028 21.9751C17.3643 22.573 15.4428 23.3268 13.1043 23.3268C6.14199 23.3268 1.47531 17.2545 1.47531 11.2652C1.47531 9.22487 2.45308 6.52272 4.34418 4.33444ZM6.05183 5.84731C4.46842 7.67955 3.74438 9.85945 3.74438 11.2652C3.74438 16.1888 7.58673 21.0293 13.1043 21.0293C15.3432 21.0293 17.0634 20.1595 17.5503 19.8074C17.8208 19.6118 18.1624 19.5461 18.4849 19.6277L21.1886 20.3121L20.5127 17.5746C20.4071 17.1469 20.5525 16.6958 20.887 16.4135C20.8833 16.4167 20.8843 16.4155 20.8897 16.409C20.9107 16.3838 20.9982 16.2788 21.1287 16.0428C21.2771 15.7744 21.4456 15.4013 21.6039 14.9343C21.9202 14.0013 22.1806 12.7391 22.1806 11.2652C22.1806 10.2926 21.5288 8.09641 19.9814 6.12969C18.4741 4.21395 16.2232 2.64985 13.1043 2.64985C9.92716 2.64985 7.6023 4.05321 6.05183 5.84731Z" fill="#262626"/>
</g>
<defs>
<clipPath id="clip0_413_566">
<rect width="24.6974" height="23.5487" fill="white" transform="translate(0.326599 0.352417)"/>
</clipPath>
</defs>
</svg>
