<svg width="26" height="23" viewBox="0 0 26 23" fill="none" xmlns="http://www.w3.org/2000/svg">
<path fill-rule="evenodd" clip-rule="evenodd" d="M3.94436 4.68541C3.06326 5.5987 2.51103 6.98527 2.87973 8.93363C3.24197 10.8479 4.91942 13.0842 7.19506 15.2776C9.16756 17.1788 11.4372 18.9062 13.2495 20.1834C13.4467 20.0368 13.6486 19.8875 13.8544 19.7352C15.546 18.4836 17.4969 17.0401 19.2287 15.4107C21.4375 13.3326 23.0575 11.1569 23.3716 8.98292C23.8567 5.62655 21.7829 3.2205 19.0352 3.2205C17.3732 3.2205 16.176 3.8143 15.375 4.52371C14.5357 5.26701 14.1755 6.09265 14.124 6.47153C14.0487 7.0268 13.5837 7.44667 13.0236 7.46514C12.4636 7.48361 11.9719 7.09529 11.8601 6.54619C11.6357 5.44388 10.4549 3.2205 7.51244 3.2205C6.20779 3.2205 4.85942 3.73691 3.94436 4.68541ZM2.29095 3.09028C3.68159 1.64883 5.64832 0.923065 7.51244 0.923065C10.2691 0.923065 12.0133 2.25262 13.0228 3.67359C13.2654 3.37106 13.5424 3.07775 13.8518 2.8038C15.048 1.74435 16.7795 0.923065 19.0352 0.923065C23.4258 0.923065 26.2942 4.82209 25.6455 9.31152C25.2139 12.2977 23.089 14.9333 20.803 17.084C18.9611 18.817 16.864 20.3677 15.1659 21.6234C14.7371 21.9405 14.3338 22.2388 13.9664 22.5164C13.5718 22.8147 13.0305 22.8268 12.6229 22.5465C10.6805 21.2106 7.95835 19.2042 5.60071 16.9318C3.29239 14.7069 1.1289 12.0376 0.622355 9.36081C0.122258 6.71808 0.86634 4.56694 2.29095 3.09028Z" fill="#262626"/>
</svg>
