<svg width="25" height="26" viewBox="0 0 25 26" fill="none" xmlns="http://www.w3.org/2000/svg">
<path d="M7.70453 21.6998C8.41616 21.3862 9.21222 21.3271 9.95762 21.5322C10.8864 21.7855 11.8453 21.9133 12.8138 21.9109C18.344 21.9109 22.463 17.9461 22.463 12.6232C22.463 7.30023 18.344 3.33546 12.8138 3.33546C7.28358 3.33546 3.16457 7.30023 3.16457 12.6232C3.16457 15.3612 4.24528 17.7761 6.13894 19.4696C6.483 19.7743 6.76124 20.1461 6.95661 20.5622C7.15197 20.9782 7.26036 21.4298 7.27514 21.8892L7.70453 21.6998ZM12.8138 0.923065C19.6093 0.923065 24.8753 5.90104 24.8753 12.6232C24.8753 19.3453 19.6093 24.3233 12.8138 24.3233C11.6343 24.3263 10.4599 24.1705 9.32198 23.8601C9.10825 23.8014 8.88081 23.818 8.67789 23.9072L6.28489 24.9638C6.1403 25.0277 5.98224 25.0551 5.82458 25.0436C5.66693 25.0321 5.51452 24.982 5.38075 24.8978C5.24698 24.8136 5.13595 24.6978 5.05742 24.5606C4.97889 24.4234 4.93526 24.269 4.93038 24.111L4.86404 21.964C4.85969 21.8334 4.82879 21.7051 4.77321 21.5869C4.71763 21.4687 4.63855 21.3631 4.54079 21.2764C2.19361 19.1789 0.752258 16.1417 0.752258 12.6232C0.752258 5.90104 6.01953 0.923065 12.8138 0.923065ZM5.57084 16.0452L9.11332 10.4243C9.2466 10.2127 9.42231 10.031 9.62935 9.89068C9.8364 9.7504 10.0703 9.65456 10.3162 9.60922C10.5622 9.56388 10.8148 9.57003 11.0583 9.62727C11.3018 9.68452 11.5307 9.79161 11.7307 9.9418L14.5482 12.0527C14.6738 12.1475 14.8269 12.1988 14.9843 12.1988C15.1416 12.1988 15.2947 12.1475 15.4203 12.0527L19.2257 9.1626C19.7335 8.77782 20.3969 9.38575 20.0567 9.92612L16.5143 15.547C16.381 15.7586 16.2053 15.9403 15.9982 16.0806C15.7912 16.2209 15.5573 16.3167 15.3114 16.3621C15.0654 16.4074 14.8127 16.4013 14.5693 16.344C14.3258 16.2868 14.0969 16.1797 13.8969 16.0295L11.0793 13.9186C10.9538 13.8238 10.8007 13.7725 10.6433 13.7725C10.486 13.7725 10.3329 13.8238 10.2073 13.9186L6.40188 16.8075C5.89409 17.1923 5.23071 16.5843 5.57084 16.044V16.0452Z" fill="#262626"/>
</svg>
