<svg width="26" height="27" viewBox="0 0 26 27" fill="none" xmlns="http://www.w3.org/2000/svg">
<path fill-rule="evenodd" clip-rule="evenodd" d="M10.8884 11.9587C10.362 11.6429 9.69229 12.022 9.69229 12.6359V19.3231C9.69229 19.937 10.362 20.3161 10.8884 20.0003L16.461 16.6567C16.9723 16.35 16.9723 15.609 16.461 15.3023L10.8884 11.9587Z" fill="#262626"/>
<path fill-rule="evenodd" clip-rule="evenodd" d="M7.32305 0.974365C3.39759 0.974365 0.215363 4.15659 0.215363 8.08206V19.1385C0.215363 23.064 3.39759 26.2462 7.32305 26.2462H18.3795C22.305 26.2462 25.4872 23.064 25.4872 19.1385V8.08206C25.4872 4.15659 22.305 0.974365 18.3795 0.974365H7.32305ZM8.29926 2.55385L10.6685 7.29231H15.9225L13.29 2.55385H8.29926ZM23.9077 8.8718V19.1385C23.9077 22.1916 21.4326 24.6667 18.3795 24.6667H7.32305C4.26991 24.6667 1.79485 22.1916 1.79485 19.1385V8.8718H23.9077ZM15.0969 2.55385L17.7293 7.29231H23.8517C23.4685 4.61327 21.1645 2.55385 18.3795 2.55385H15.0969ZM8.90254 7.29231L6.55947 2.60616C4.126 2.94237 2.19839 4.86249 1.85083 7.29231H8.90254Z" fill="#262626"/>
</svg>
