<svg width="28" height="25" viewBox="0 0 28 25" fill="none" xmlns="http://www.w3.org/2000/svg">
<path d="M26.6133 22.4337L21.0591 17.3755C22.6263 15.5525 23.4766 13.3014 23.4735 10.9839C23.4735 8.92004 22.8032 6.9025 21.5473 5.18644C20.2915 3.47037 18.5065 2.13286 16.4181 1.34304C14.3297 0.553227 12.0317 0.346575 9.81472 0.749221C7.5977 1.15187 5.56124 2.14573 3.96285 3.60512C2.36447 5.06451 1.27596 6.92389 0.834968 8.94813C0.393975 10.9724 0.620308 13.0705 1.48535 14.9773C2.35038 16.8841 3.81528 18.5139 5.69477 19.6605C7.57427 20.8071 9.78397 21.4192 12.0444 21.4192C14.5826 21.422 17.0481 20.6456 19.0447 19.2147L24.5846 24.2859C24.7174 24.4082 24.8754 24.5052 25.0495 24.5715C25.2236 24.6377 25.4104 24.6718 25.599 24.6718C25.7875 24.6718 25.9743 24.6377 26.1484 24.5715C26.3225 24.5052 26.4805 24.4082 26.6133 24.2859C26.7472 24.1647 26.8535 24.0204 26.926 23.8615C26.9985 23.7025 27.0359 23.532 27.0359 23.3598C27.0359 23.1876 26.9985 23.0171 26.926 22.8582C26.8535 22.6992 26.7472 22.555 26.6133 22.4337ZM3.47263 10.9839C3.47263 9.43602 3.97535 7.92286 4.91723 6.63581C5.85911 5.34876 7.19785 4.34563 8.76414 3.75327C10.3304 3.1609 12.0539 3.00592 13.7167 3.3079C15.3795 3.60988 16.9068 4.35528 18.1056 5.44982C19.3044 6.54437 20.1208 7.9389 20.4515 9.45708C20.7823 10.9753 20.6125 12.5489 19.9637 13.979C19.3149 15.4091 18.2163 16.6314 16.8067 17.4914C15.397 18.3513 13.7398 18.8104 12.0444 18.8104C9.77104 18.8104 7.59077 17.9858 5.98325 16.518C4.37572 15.0503 3.47263 13.0596 3.47263 10.9839Z" fill="#262626"/>
</svg>
